<svg width="20" height="18" viewBox="0 0 20 18" fill="none" xmlns="http://www.w3.org/2000/svg">
<path d="M9.6359 17.9105L9.62872 17.9075L9.60615 17.8955C9.47414 17.8247 9.34319 17.752 9.21333 17.6775C7.65211 16.773 6.1931 15.7104 4.86051 14.5074C2.50051 12.3604 0 9.1743 0 5.25021C0 2.32213 2.52718 7.09531e-05 5.57744 7.09531e-05C6.42539 -0.00397858 7.26337 0.178416 8.02905 0.53369C8.79473 0.888964 9.46842 1.40797 10 2.05212C10.5317 1.40784 11.2055 0.888751 11.9714 0.533472C12.7373 0.178193 13.5755 -0.00412916 14.4236 7.09531e-05C17.4728 7.09531e-05 20 2.32213 20 5.25021C20 9.17531 17.4995 12.3614 15.1395 14.5064C13.8069 15.7094 12.3479 16.772 10.7867 17.6765C10.6568 17.7514 10.5259 17.8244 10.3938 17.8955L10.3713 17.9075L10.3641 17.9115L10.361 17.9125C10.2498 17.97 10.1259 18 10 18C9.87414 18 9.75019 17.97 9.63897 17.9125L9.6359 17.9105Z" fill="#FF0000"/>
</svg>
