<svg width="18" height="10" viewBox="0 0 18 10" fill="none" xmlns="http://www.w3.org/2000/svg">
<path fill-rule="evenodd" clip-rule="evenodd" d="M9.53009 9.28003C9.38947 9.42048 9.19884 9.49937 9.00009 9.49937C8.80134 9.49937 8.61072 9.42048 8.47009 9.28003L0.970091 1.78003C0.837611 1.63786 0.765487 1.44981 0.768916 1.25551C0.772344 1.06121 0.851056 0.875822 0.988469 0.738409C1.12588 0.600996 1.31127 0.522285 1.50557 0.518856C1.69987 0.515428 1.88792 0.587551 2.03009 0.720031L9.00009 7.69003L15.9701 0.720031C16.0388 0.646344 16.1216 0.587242 16.2136 0.54625C16.3056 0.505258 16.4049 0.483217 16.5056 0.48144C16.6063 0.479663 16.7063 0.498188 16.7997 0.535909C16.8931 0.57363 16.9779 0.629774 17.0491 0.700993C17.1203 0.772212 17.1765 0.857045 17.2142 0.950434C17.2519 1.04382 17.2705 1.14385 17.2687 1.24455C17.2669 1.34526 17.2449 1.44457 17.2039 1.53657C17.1629 1.62857 17.1038 1.71137 17.0301 1.78003L9.53009 9.28003Z" fill="#909090"/>
</svg>
